<?xml version="1.0" encoding="UTF-8"?>
<svg id="_图层_1" data-name="图层_1" xmlns="http://www.w3.org/2000/svg" version="1.1" viewBox="0 0 220 250">
  <!-- Generator: Adobe Illustrator 29.0.0, SVG Export Plug-In . SVG Version: 2.1.0 Build 186)  -->
  <defs>
    <style>
      .st0 {
        fill: #fff;
      }
    </style>
  </defs>
  <path class="st0" d="M147.45,171.99c.87.39,1.73.75,2.57,1.14,2.68,1.29,5.11,3.04,7.17,5.19,2.19,2.27,3.95,4.92,5.17,7.82,1.57,3.68,2.07,7.53,1.93,11.5-.04,1.22,0,2.45,0,3.56.74.28,1.42.46,2.02.8,1,.55,1.62,1.6,1.61,2.75.05,2.53,0,5.07,0,7.6,0,1.9-1.76,3.5-3.52,3.48-4.17-.04-8.34,0-12.51,0-3.78,0-7.56.02-11.34.01-4.68,0-9.36-.02-14.04-.02-4.09,0-8.17,0-12.24.01-.85,0-1.69,0-2.45-.47-1.06-.65-1.73-1.57-1.75-2.83-.04-2.61-.03-5.21,0-7.82.05-1.65,1.28-3.02,2.91-3.25.21-.03.42-.06.68-.1v-5.39c-.05-4.15.96-8.25,2.92-11.91,2.9-5.45,7.69-9.66,13.46-11.85.15-.06.28-.14.42-.2-1.25-4.68-.16-8.53,4.09-11.12,2.94-1.79,6.94-1.48,9.64.47,3.17,2.29,4.7,6.3,3.26,10.63h0ZM164.31,204.97c-1.01,0-1.98-.03-2.94.01-.52.02-.65-.16-.65-.66.02-2.62.02-5.25,0-7.87,0-.89-.07-1.79-.15-2.68-.23-2.56-.93-5.06-2.06-7.36-1.23-2.54-2.95-4.81-5.06-6.69-2.08-1.85-4.49-3.29-7.11-4.25-.97-.36-.97-.37-1.7.4,0,.05.02.1.04.15,1.46,2.43,2.62,5.02,3.47,7.71.79,2.39,1.29,4.86,1.49,7.37.15,2.21.11,4.44.14,6.65.02,1.19,0,2.38,0,3.64h7.25v3.59h-43.37v5.37h5.41c0-1.03.02-2.03,0-3.04-.02-.45.14-.57.57-.56.76.03,1.51,0,2.27,0s.75,0,.75.74v2.84h5.5v-3.58c1.01,0,1.98.03,2.94,0,.5-.02.68.12.65.63-.04.98,0,1.96,0,2.96h5.42c.01-.21.03-.4.03-.59v-2.27c0-.76,0-.73.71-.73h2.06c.9,0,.85-.13.85.86v2.72h5.44v-.6c0-.85-.01-1.69.02-2.54,0-.15.18-.42.29-.42,1.07-.03,2.14-.02,3.29-.02v3.57h5.48v-3.58h2.89q.69,0,.69.69v2.9h5.43v-5.38ZM146.23,201.35v-3.01c-.02-2.76.06-5.52-.33-8.27-.62-4.3-2.08-8.44-4.28-12.18-.11-.27-.41-.4-.68-.31-1.3.32-2.66.32-3.97,0-.27-.09-.57.05-.67.32-1.25,2.14-2.27,4.41-3.04,6.76-.78,2.49-1.35,5.03-1.47,7.63-.11,2.48-.08,4.96-.11,7.44v1.63h14.53ZM128.12,201.35v-6.06c-.03-4.18.51-8.26,1.88-12.23.81-2.32,1.82-4.57,3.03-6.71.1-.18.21-.53.13-.61-.25-.26-.44-.66-.99-.48-1.91.62-3.72,1.51-5.38,2.64-3.52,2.38-6.26,5.75-7.88,9.68-.96,2.23-1.51,4.62-1.64,7.05-.07,1.74-.03,3.48-.04,5.23v1.52h10.89ZM138.94,163.3c-3.11.09-5.54,2.6-5.44,5.62.13,3.03,2.68,5.39,5.72,5.28,2.93-.1,5.28-2.67,5.18-5.69-.09-2.82-2.68-5.28-5.46-5.19h0ZM80.96,172.43v25.25h3.63v3.61h-3.57v3.67h18.14v-3.66c-1.06,0-2.05-.02-3.04,0-.42.01-.59-.1-.58-.55.03-1,0-1.99,0-3.05h3.59v-25.25h3.61v2.24c0,5.28,0,10.56-.02,15.84,0,4.96,0,9.92.02,14.89v8.34c0,1.26-.63,2.01-1.69,2.06-1.06.05-1.84-.62-1.88-1.69l-.02-1.02v-2.65h-3.68v2.06c0,.53,0,1.06-.02,1.58-.04.96-.7,1.68-1.58,1.73-1.06.06-1.79-.48-1.92-1.52-.06-.72-.08-1.44-.06-2.16v-1.69h-3.63v2.04c0,.58.01,1.16-.03,1.74-.08.97-.87,1.61-1.89,1.6-.89-.03-1.6-.73-1.64-1.62-.02-.38-.03-.76-.03-1.15v-2.6h-3.68v3.17c.01.33-.02.67-.09.99-.24.81-.98,1.27-1.88,1.21-.76-.06-1.38-.62-1.53-1.37-.05-.24-.08-.49-.08-.73v-41.28s3.55,0,3.55,0ZM91.81,197.72v3.54h-3.48v-3.54h3.48ZM108.64,110.93c8.14.64,15.64,4.69,20.64,11.15,4.23,5.46,6.36,12.26,6.01,19.16-.12,2.74-.64,5.45-1.55,8.03-.72,2.11-1.7,4.13-2.9,6.01-2.49,3.92-5.88,7.18-9.89,9.51-2.62,1.52-5.45,2.63-8.4,3.29-2.52.58-5.07.67-7.65.63-1.32-.01-2.63.04-3.95.03-2.96,0-5.91-.04-8.86-.04h-28.95c-1.91,0-3.83.04-5.74.05-1.18,0-2.36,0-3.54-.03-1.09-.03-1.81-.78-1.8-1.81.01-1.03.69-1.71,1.79-1.75,1.04-.03,2.08-.03,3.12,0,.42,0,.54-.14.53-.55-.02-1.02,0-2.04,0-3.14h-3.61c-1.07-.01-1.81-.75-1.82-1.78-.02-.47.16-.94.49-1.27.33-.34.79-.52,1.27-.51,1.08-.02,2.15,0,3.22,0,.12,0,.24-.02.41-.04v-3.61h-1.89c-.62,0-1.27,0-1.9-.03-.91-.06-1.56-.78-1.6-1.73-.04-.95.57-1.72,1.51-1.78,1.09-.07,2.18-.07,3.27-.05.49.01.68-.1.66-.63-.04-.98-.01-1.97-.01-3.04h-3.65c-.47,0-.93-.18-1.26-.51-.33-.34-.52-.79-.51-1.27-.03-.46.14-.92.46-1.25.32-.34.76-.53,1.23-.53,1.69-.04,3.38-.04,5.07-.04,3.82,0,7.64.02,11.47.02h28c2.59,0,5.18.02,7.76,0,1.29,0,2.39-.45,3.22-1.51,1.29-1.66.69-4.36-1.17-5.34-2.7-1.42-5.37.78-5.37,2.99,0,.05-.01.1-.03.15h-3.54c-.03-1.63.52-3.22,1.56-4.48,1.99-2.46,5.35-3.34,8.29-2.2,1.98.78,3.52,2.4,4.2,4.42.68,2.02.43,4.24-.69,6.06-1.48,2.38-3.66,3.5-6.44,3.5h-14.05c-4.37,0-8.73,0-13.09.01h-8.77v3.61h-2.23c-1.29,0-1.36,0-1.36-1.15v-2.43h-3.62v18.08h3.61v-3.59c1.16,0,2.27,0,3.37.02.08,0,.21.28.21.43.02.86.01,1.73.01,2.59v.56c.26.01.46.03.67.03h35.23c3.26.02,6.5-.58,9.54-1.76,6.56-2.59,11.76-7.78,14.36-14.34,1.37-3.43,1.95-7.12,1.72-10.8-.6-9.95-6.97-18.63-16.29-22.18-9.31-3.55-19.84-1.32-26.92,5.7-2.18,2.16-3.94,4.7-5.19,7.5-1.45,3.2-2.23,6.65-2.28,10.16,0,.1-.02.21-.04.31h-3.22c-.34,0-.33-.23-.32-.47.04-2.08.29-4.14.74-6.17,1.31-5.52,4.21-10.54,8.35-14.43,5.95-5.6,13.99-8.42,22.13-7.78h0ZM69.83,154.31c.12,0,.32.18.32.29.03,1.09.02,2.17.02,3.3-1.14,0-2.22,0-3.3-.02-.09,0-.26-.21-.26-.34-.02-.97-.02-1.93,0-2.9.04-.16.17-.28.33-.33.97-.03,1.93-.03,2.9,0h0ZM69.83,154.31"/>
</svg>