<?xml version="1.0" encoding="UTF-8"?>
<svg id="_图层_1" data-name="图层_1" xmlns="http://www.w3.org/2000/svg" version="1.1" viewBox="0 0 220 250">
  <!-- Generator: Adobe Illustrator 29.0.0, SVG Export Plug-In . SVG Version: 2.1.0 Build 186)  -->
  <defs>
    <style>
      .st0 {
        fill: #fff;
      }
    </style>
  </defs>
  <path class="st0" d="M126.41,110.14h-34.31l-6.02,6.02h46.35l-6.02-6.02h0ZM135.47,120.45h-6.02v14.61h6.02v-14.61ZM89.06,120.45h-6.02v14.61h6.02v-14.61ZM125.15,120.45h-31.8v14.61h31.8v-14.61ZM121.9,211.54c.57,0,1.12.23,1.52.63.4.4.63.95.63,1.52s-.22,1.12-.63,1.52c-.4.4-.95.63-1.52.63s-1.12-.23-1.52-.63c-.4-.4-.63-.95-.63-1.52s.23-1.12.63-1.52c.41-.4.95-.63,1.52-.63h0ZM127.3,105.84c.57,0,1.12.22,1.52.63l10.31,10.31c.41.41.63.96.63,1.52v16.76h22.35c1.19,0,2.15.96,2.15,2.15v62.09c0,.57-.22,1.12-.63,1.52l-14.39,14.39c-.4.4-.95.63-1.52.63h-17.22c-1.19,0-2.15-.96-2.15-2.15s.96-2.15,2.15-2.15h16.34l13.14-13.14v-59.05H58.55v59.05l13.14,13.14h41.61c1.19,0,2.15.96,2.15,2.15s-.96,2.15-2.15,2.15h-42.51c-.57,0-1.12-.22-1.52-.63l-14.39-14.39c-.4-.4-.63-.95-.63-1.52v-62.09c0-1.19.96-2.15,2.15-2.15h22.34v-16.76c0-.56.21-1.11.63-1.52l10.31-10.31c.4-.4.95-.63,1.52-.63h36.09ZM127.3,105.84"/>
</svg>