<?xml version="1.0" encoding="UTF-8"?>
<svg id="_图层_1" data-name="图层_1" xmlns="http://www.w3.org/2000/svg" version="1.1" viewBox="0 0 220 250">
  <!-- Generator: Adobe Illustrator 29.0.0, SVG Export Plug-In . SVG Version: 2.1.0 Build 186)  -->
  <defs>
    <style>
      .st0 {
        fill: #fff;
      }
    </style>
  </defs>
  <path class="st0" d="M154.56,145.03v-9.66c0-3.16-2.46-5.76-5.61-5.94l-.34-.02-4-12.01c-.81-2.43-3.07-4.07-5.64-4.07h-57.95c-2.56,0-4.83,1.63-5.64,4.07l-4.03,12.01-.34.02c-3.13.19-5.59,2.8-5.58,5.94v9.66c0,3.27,2.66,5.94,5.94,5.94h3.75l-.03.53c-.01.22-.01.43,0,.65l6.44,57.91c.34,3.03,2.86,5.34,5.94,5.29h45.1c3.04,0,5.57-2.27,5.9-5.28l6.44-57.94c.01-.19.01-.41,0-.62l-.03-.53h3.75c3.27,0,5.94-2.66,5.94-5.94ZM80.67,118.78h58.66l3.55,10.66h-65.76l3.55-10.66ZM132.98,209.9h-45.96l-1.17-10.66h48.3l-1.17,10.66ZM134.39,197.03h-48.79l-3.72-33.19h56.22l-3.72,33.19ZM138.32,161.62h-56.68l-1.17-10.66h59.06l-1.21,10.66ZM70.88,145.53v-10.66h78.25v10.66h-78.25Z"/>
</svg>