<?xml version="1.0" encoding="UTF-8"?>
<svg id="_图层_1" data-name="图层_1" xmlns="http://www.w3.org/2000/svg" version="1.1" viewBox="0 0 220 250">
  <!-- Generator: Adobe Illustrator 29.0.0, SVG Export Plug-In . SVG Version: 2.1.0 Build 186)  -->
  <defs>
    <style>
      .st0 {
        fill: #fff;
      }
    </style>
  </defs>
  <path class="st0" d="M109.93,149.78c.99,0,2.01-.03,3.05-.09,6.52,11.12,6.06,22.75,6.06,22.88l4.52.22c.01-.23.11-2.59-.32-6.17.3-2.74,5.94-7.11,10.8-10.01.25.01.61.02,1.04.02h0c12.06,0,25.6-6.95,27.44-26.46l.23-2.47h-2.49c-9.73,0-17.21,2.75-22.23,8.16-5.61,6.05-6.45,13.67-6.53,16.99-2.74,1.63-6.68,4.26-9.47,7.28-1-3.98-2.64-8.5-5.31-12.99-.1-38.71-34.26-40.68-41.12-40.68-1.13,0-1.78.05-1.78.05l-2.16.16.06,2.16c.01.41,1.56,40.95,38.2,40.95h0ZM141.39,138.91c3.7-3.96,9.17-6.18,16.31-6.6-2.8,17.18-16.11,19.56-21.62,19.78.2-3.01,1.16-8.72,5.31-13.18h0ZM112.16,145.21c-.76.04-1.51.05-2.24.05-27.84,0-32.68-26.19-33.51-34.26,9.19.17,34.64,3.45,35.75,34.21h0ZM112.16,145.21"/>
  <path class="st0" d="M163.47,180.54c-2.3-2.62-4.87-3.9-7.58-3.75-4.4.2-7.3,3.98-7.43,4.2-3.17,3.37-8.97,8.45-12.93,9.79-1.45-5.31-4.83-7.42-7.5-8.25-2.53-.79-4.79-.55-5.58-.42-1.39-.02-9.3-.12-12.06-.16-11.89-11.23-23.67-11.24-29.14-10.43v-6.43h-28.16v44.77h28.16v-5.4c7.05,3.69,23.15,11.26,36.28,11.26,1.73,0,3.4-.13,5-.42,16.91-3.05,40-17.89,40.97-18.52l.39-.32c2.46-2.54,5.54-9.13-.42-15.92h0ZM76.72,205.34h-19.11v-35.73h19.12v35.73h0ZM160.79,193.14c-2.55,1.62-23.95,14.98-39.07,17.7-13.63,2.47-35.03-8.55-40.48-11.52v-23.21c4.17-.73,15.36-1.34,26.64,9.71l.66.64h.92c.66,0,13.13.17,13.13.17h.24s.24-.04.24-.04c.02,0,1.75-.32,3.61.26,2.02.63,3.41,2.03,4.21,4.27-9.74.03-34.11.16-34.11.16l.02,4.52s30.81-.17,36.97-.17c6.94,0,16.87-10.38,18.14-11.76.52-.69,2.28-2.5,4.19-2.57,1.3-.02,2.62.7,3.96,2.22,4.23,4.81,1.49,8.7.72,9.61h0ZM160.79,193.14"/>
</svg>