<?xml version="1.0" encoding="UTF-8"?>
<svg id="_图层_1" data-name="图层_1" xmlns="http://www.w3.org/2000/svg" version="1.1" viewBox="0 0 220 250">
  <!-- Generator: Adobe Illustrator 29.0.0, SVG Export Plug-In . SVG Version: 2.1.0 Build 186)  -->
  <defs>
    <style>
      .st0 {
        fill: #fff;
      }
    </style>
  </defs>
  <path class="st0" d="M83.15,215.24c-4.64,0-9.05-.75-11.4-2.31-2.82-1.88-4.59-4.9-5.13-8.73-.77-5.55,1.22-12.01,2.94-14.02.97-1.13,2.67-1.26,3.81-.3,1.13.97,1.27,2.67.31,3.8-.55.74-2.41,5.67-1.65,10.12.37,2.14,1.25,3.65,2.71,4.63,3.43,2.28,16.48,1.74,19.94-.85,1.2-.86,2.87-.6,3.75.58.88,1.19.65,2.86-.52,3.76-2.91,2.17-9.01,3.32-14.77,3.32h0ZM83.15,215.24"/>
  <path class="st0" d="M108.26,215.72c-5.79,0-9.3-3.51-12.7-6.92-3.01-3.02-6.13-6.13-11.16-7.14-12.28-2.45-15.48-7.39-15.8-7.95-.45-.76-.49-1.69-.13-2.5l12.2-26.58c.62-1.36,2.23-1.95,3.58-1.33,1.36.62,1.95,2.23,1.33,3.58l-11.44,24.94c1.39,1.14,4.65,3.19,11.32,4.52,6.64,1.33,10.68,5.37,13.92,8.62,3.31,3.31,5.5,5.33,8.88,5.33s6.1-1.65,9.35-3.72c4.11-2.63,8.78-5.61,16.32-5.61,6.43,0,9.97,1.43,12.32,2.38.64.26,1.56.53,1.79.6.05-.02.1-.05.15-.08.47-3.16-4.32-17.53-11.85-29.05-2.16-3.27-4.53-6.4-7.1-9.37-.65-.73-.85-1.76-.53-2.68.32-.92,1.11-1.6,2.07-1.78.96-.17,1.94.18,2.56.93,2.72,3.14,5.24,6.46,7.53,9.93,5.39,8.27,16.65,31.07,11.18,35.84-2.98,2.61-5.55,1.58-7.82.66-2.07-.84-4.91-1.98-10.29-1.98-5.96,0-9.57,2.31-13.4,4.76-3.52,2.25-7.16,4.58-12.27,4.58h0ZM108.26,215.72"/>
  <path class="st0" d="M80.08,168.95c-.82,0-1.6-.38-2.12-1.02-.51-.64-.7-1.49-.52-2.29l1.62-7.01-7.01-1.62c-1.07-.25-1.88-1.11-2.06-2.19-.18-1.08.31-2.16,1.24-2.74l15.86-9.91c1.27-.79,2.93-.4,3.72.86.79,1.27.41,2.93-.86,3.72l-10.32,6.44,3.29.76c.7.16,1.31.59,1.69,1.2.38.61.5,1.34.34,2.04l-.76,3.29,16.23-10.14c1.27-.77,2.91-.37,3.7.88.78,1.25.41,2.91-.83,3.71l-21.77,13.6c-.43.27-.93.41-1.43.41h0ZM80.08,168.95"/>
  <path class="st0" d="M130.52,174.3c-.57,0-1.13-.18-1.6-.52l-26.85-19.66c-1.21-.88-1.47-2.57-.59-3.78.88-1.21,2.57-1.47,3.78-.59l21.71,15.9-.48-3.51c-.2-1.48.84-2.84,2.32-3.04l2.25-.31-15.23-9.27c-1.28-.78-1.68-2.44-.91-3.72.78-1.28,2.44-1.68,3.72-.91l21.75,13.23c.98.6,1.47,1.74,1.24,2.86-.23,1.12-1.15,1.97-2.28,2.13l-7.13.97.97,7.13c.11.77-.13,1.56-.64,2.14-.51.59-1.26.93-2.04.93h0ZM130.52,174.3"/>
  <path class="st0" d="M104.17,152.71c-12.75,0-23.12-10.37-23.12-23.12s10.37-23.12,23.12-23.12,23.13,10.37,23.13,23.12-10.38,23.12-23.13,23.12h0ZM104.17,111.88c-9.77,0-17.71,7.95-17.71,17.71s7.95,17.71,17.71,17.71,17.71-7.95,17.71-17.71-7.95-17.71-17.71-17.71h0ZM104.17,111.88"/>
  <path class="st0" d="M103.59,201.72c-1.08,0-2.06-.64-2.49-1.64-.3-.7-7.33-17.29-4.8-27.39.22-.95.94-1.71,1.87-1.99.94-.28,1.95-.02,2.65.66.7.68.97,1.69.72,2.64-1.73,6.93,2.68,19.64,4.53,23.95.36.84.27,1.79-.23,2.55-.5.76-1.35,1.22-2.26,1.22h0ZM103.59,201.72"/>
</svg>