<?xml version="1.0" encoding="UTF-8"?>
<svg id="_图层_1" data-name="图层_1" xmlns="http://www.w3.org/2000/svg" version="1.1" viewBox="0 0 220 250">
  <!-- Generator: Adobe Illustrator 29.0.0, SVG Export Plug-In . SVG Version: 2.1.0 Build 186)  -->
  <defs>
    <style>
      .st0 {
        fill: #fff;
      }
    </style>
  </defs>
  <path class="st0" d="M110.04,176.67c-.92,0-1.77.49-2.24,1.29l-19.36,33.53c-.46.79-.46,1.78,0,2.57.47.79,1.32,1.29,2.24,1.29h38.71c.91,0,1.77-.49,2.24-1.29.46-.79.46-1.78,0-2.57l-19.36-33.53c-.46-.79-1.32-1.29-2.23-1.29ZM95.15,210.19l14.9-25.81,14.9,25.81h-29.8Z"/>
  <path class="st0" d="M137.56,150.06l-17.42-2.53-7.8-15.78c-.43-.87-1.33-1.43-2.3-1.43s-1.88.56-2.3,1.43l-7.79,15.78-17.42,2.53c-.99.15-1.78.82-2.08,1.75-.31.92-.05,1.96.65,2.64l12.6,12.29-2.97,17.34c-.17.96.23,1.95,1.02,2.52.79.58,1.88.64,2.72.21l15.58-8.2,15.58,8.2c.86.45,1.92.37,2.71-.2.79-.58,1.18-1.54,1.02-2.52l-2.97-17.35,12.6-12.29c.7-.68.95-1.69.65-2.64-.31-.93-1.11-1.6-2.08-1.75ZM121.83,164c-.61.59-.88,1.44-.74,2.27l2.32,13.55-12.17-6.4c-.74-.39-1.63-.39-2.4,0l-12.16,6.39,2.33-13.55c.14-.84-.13-1.69-.74-2.27l-9.85-9.6,13.61-1.98c.84-.12,1.57-.65,1.93-1.41l6.08-12.33,6.08,12.33c.37.76,1.09,1.29,1.93,1.41l13.61,1.98-9.85,9.6ZM162.11,150.34h-12.9c-1.42,0-2.57,1.15-2.57,2.57s1.15,2.57,2.57,2.57h12.9c1.42,0,2.57-1.15,2.57-2.57s-1.15-2.57-2.57-2.57ZM83.86,130.94c1-1,1-2.64,0-3.64l-8.41-8.41c-.5-.5-1.16-.75-1.82-.75s-1.32.25-1.82.75c-1,1-1,2.64,0,3.64l8.41,8.41c.97.97,2.68.97,3.64,0ZM148.31,118.89c-.49-.49-1.14-.76-1.82-.76s-1.33.27-1.82.76l-8.41,8.41c-1,1-1,2.64,0,3.64s2.67.97,3.64,0l8.41-8.41c1-1,1-2.64,0-3.64ZM110.06,124.39c1.42,0,2.57-1.15,2.57-2.57v-12.9c0-1.42-1.15-2.57-2.57-2.57s-2.57,1.15-2.57,2.57v12.9c0,1.42,1.15,2.57,2.57,2.57ZM70.79,150.34h-12.9c-1.42,0-2.57,1.15-2.57,2.57s1.15,2.57,2.57,2.57h12.9c1.42,0,2.57-1.15,2.57-2.57s-1.15-2.57-2.57-2.57Z"/>
</svg>