<?xml version="1.0" encoding="UTF-8"?>
<svg id="_图层_1" data-name="图层_1" xmlns="http://www.w3.org/2000/svg" version="1.1" viewBox="0 0 220 250">
  <!-- Generator: Adobe Illustrator 29.0.0, SVG Export Plug-In . SVG Version: 2.1.0 Build 186)  -->
  <defs>
    <style>
      .st0 {
        fill: #fff;
      }
    </style>
  </defs>
  <path class="st0" d="M57.69,138.92h10.26v5.13h-10.26v-5.13ZM57.69,187.63h10.26v5.13h-10.26v-5.13ZM60.26,177.38v7.69h5.13v-38.46h-5.13v30.77ZM119.86,162.35l21.76-21.75,3.63,3.63-21.76,21.76-3.63-3.63ZM119.86,162.35"/>
  <path class="st0" d="M161.54,131.48l-7.18-7.18c-1.03-1.03-2.56-1.03-3.59,0l-7.18,7.18v-13.08c0-1.54-1.03-2.56-2.56-2.56H62.82c-1.54,0-2.56,1.03-2.56,2.56v17.95h5.13v-15.38h7.69v89.74h-7.69v-15.38h-5.13v17.95c0,1.54,1.03,2.56,2.56,2.56h77.95c1.54,0,2.56-1.03,2.56-2.56v-56.15l11.03-11.03c.51-.51.77-1.03.77-1.79s-.26-1.28-.77-1.8l7.18-7.18c1.03-1.28,1.03-2.82,0-3.85h0ZM138.21,210.71h-60v-89.74h60v12.05l-52.82,52.82c-.26.26-.26.51-.51.77v.26l-5.38,16.41c-.26,1.03,0,2.05.51,2.56.51.51,1.03.77,1.79.77.26,0,.51,0,.77-.26l16.41-5.38h.26c.26,0,.51-.26.77-.51l38.2-38.2v48.46ZM88.46,192.51l5.13,5.13-7.44,2.56,2.31-7.69ZM98.2,195.07l-7.44-7.44,50.77-50.77,7.18,7.18-50.51,51.03ZM150.77,138.92l-3.59-3.59,5.38-5.38,3.59,3.59-5.38,5.38ZM150.77,138.92"/>
</svg>